<?xml version="1.0" encoding="UTF-8" standalone="no"?>
<!DOCTYPE svg PUBLIC "-//W3C//DTD SVG 1.1//EN"
 "http://www.w3.org/Graphics/SVG/1.1/DTD/svg11.dtd">
<!-- Generated by graphviz version 10.0.1 (20240210.2158)
 -->
<!-- Title: BST Pages: 1 -->
<svg width="494pt" height="332pt"
 viewBox="0.00 0.00 494.00 332.00" xmlns="http://www.w3.org/2000/svg" xmlns:xlink="http://www.w3.org/1999/xlink">
<g id="graph0" class="graph" transform="scale(1 1) rotate(0) translate(4 328)">
<title>BST</title>
<polygon fill="white" stroke="none" points="-4,4 -4,-328 490,-328 490,4 -4,4"/>
<!-- 36 -->
<g id="node1" class="node">
<title>36</title>
<ellipse fill="#add8e6" stroke="#add8e6" cx="189" cy="-306" rx="27" ry="18"/>
<text text-anchor="middle" x="189" y="-300.95" font-family="Times,serif" font-size="14.00">36</text>
</g>
<!-- 27 -->
<g id="node2" class="node">
<title>27</title>
<ellipse fill="#add8e6" stroke="#add8e6" cx="153" cy="-234" rx="27" ry="18"/>
<text text-anchor="middle" x="153" y="-228.95" font-family="Times,serif" font-size="14.00">27</text>
</g>
<!-- 36&#45;&gt;27 -->
<g id="edge1" class="edge">
<title>36&#45;&gt;27</title>
<path fill="none" stroke="black" d="M180.65,-288.76C176.42,-280.55 171.19,-270.37 166.42,-261.09"/>
<polygon fill="black" stroke="black" points="169.68,-259.79 162,-252.49 163.46,-262.99 169.68,-259.79"/>
</g>
<!-- 90 -->
<g id="node3" class="node">
<title>90</title>
<ellipse fill="#add8e6" stroke="#add8e6" cx="261" cy="-234" rx="27" ry="18"/>
<text text-anchor="middle" x="261" y="-228.95" font-family="Times,serif" font-size="14.00">90</text>
</g>
<!-- 36&#45;&gt;90 -->
<g id="edge2" class="edge">
<title>36&#45;&gt;90</title>
<path fill="none" stroke="black" d="M203.92,-290.5C213.77,-280.92 226.86,-268.19 238.03,-257.34"/>
<polygon fill="black" stroke="black" points="240.29,-260.02 245.02,-250.54 235.41,-255 240.29,-260.02"/>
</g>
<!-- 6 -->
<g id="node4" class="node">
<title>6</title>
<ellipse fill="#add8e6" stroke="#add8e6" cx="45" cy="-162" rx="27" ry="18"/>
<text text-anchor="middle" x="45" y="-156.95" font-family="Times,serif" font-size="14.00">6</text>
</g>
<!-- 27&#45;&gt;6 -->
<g id="edge3" class="edge">
<title>27&#45;&gt;6</title>
<path fill="none" stroke="black" d="M134.19,-220.81C117.41,-209.93 92.61,-193.86 73.41,-181.42"/>
<polygon fill="black" stroke="black" points="75.52,-178.61 65.23,-176.11 71.72,-184.49 75.52,-178.61"/>
</g>
<!-- 30 -->
<g id="node5" class="node">
<title>30</title>
<ellipse fill="#add8e6" stroke="#add8e6" cx="153" cy="-162" rx="27" ry="18"/>
<text text-anchor="middle" x="153" y="-156.95" font-family="Times,serif" font-size="14.00">30</text>
</g>
<!-- 27&#45;&gt;30 -->
<g id="edge4" class="edge">
<title>27&#45;&gt;30</title>
<path fill="none" stroke="black" d="M153,-215.7C153,-208.41 153,-199.73 153,-191.54"/>
<polygon fill="black" stroke="black" points="156.5,-191.62 153,-181.62 149.5,-191.62 156.5,-191.62"/>
</g>
<!-- 79 -->
<g id="node10" class="node">
<title>79</title>
<ellipse fill="#add8e6" stroke="#add8e6" cx="261" cy="-162" rx="27" ry="18"/>
<text text-anchor="middle" x="261" y="-156.95" font-family="Times,serif" font-size="14.00">79</text>
</g>
<!-- 90&#45;&gt;79 -->
<g id="edge9" class="edge">
<title>90&#45;&gt;79</title>
<path fill="none" stroke="black" d="M261,-215.7C261,-208.41 261,-199.73 261,-191.54"/>
<polygon fill="black" stroke="black" points="264.5,-191.62 261,-181.62 257.5,-191.62 264.5,-191.62"/>
</g>
<!-- 99 -->
<g id="node11" class="node">
<title>99</title>
<ellipse fill="#add8e6" stroke="#add8e6" cx="387" cy="-162" rx="27" ry="18"/>
<text text-anchor="middle" x="387" y="-156.95" font-family="Times,serif" font-size="14.00">99</text>
</g>
<!-- 90&#45;&gt;99 -->
<g id="edge10" class="edge">
<title>90&#45;&gt;99</title>
<path fill="none" stroke="black" d="M281.24,-221.75C301.73,-210.37 333.62,-192.65 357.03,-179.65"/>
<polygon fill="black" stroke="black" points="358.44,-182.87 365.48,-174.95 355.04,-176.75 358.44,-182.87"/>
</g>
<!-- 4 -->
<g id="node6" class="node">
<title>4</title>
<ellipse fill="#add8e6" stroke="#add8e6" cx="27" cy="-90" rx="27" ry="18"/>
<text text-anchor="middle" x="27" y="-84.95" font-family="Times,serif" font-size="14.00">4</text>
</g>
<!-- 6&#45;&gt;4 -->
<g id="edge5" class="edge">
<title>6&#45;&gt;4</title>
<path fill="none" stroke="black" d="M40.64,-144.05C38.7,-136.49 36.35,-127.37 34.16,-118.85"/>
<polygon fill="black" stroke="black" points="37.57,-118.07 31.69,-109.25 30.79,-119.81 37.57,-118.07"/>
</g>
<!-- 29 -->
<g id="node8" class="node">
<title>29</title>
<ellipse fill="#add8e6" stroke="#add8e6" cx="99" cy="-90" rx="27" ry="18"/>
<text text-anchor="middle" x="99" y="-84.95" font-family="Times,serif" font-size="14.00">29</text>
</g>
<!-- 30&#45;&gt;29 -->
<g id="edge7" class="edge">
<title>30&#45;&gt;29</title>
<path fill="none" stroke="black" d="M141.02,-145.46C134.23,-136.67 125.6,-125.48 117.92,-115.53"/>
<polygon fill="black" stroke="black" points="120.75,-113.47 111.88,-107.69 115.21,-117.75 120.75,-113.47"/>
</g>
<!-- 33 -->
<g id="node9" class="node">
<title>33</title>
<ellipse fill="#add8e6" stroke="#add8e6" cx="171" cy="-90" rx="27" ry="18"/>
<text text-anchor="middle" x="171" y="-84.95" font-family="Times,serif" font-size="14.00">33</text>
</g>
<!-- 30&#45;&gt;33 -->
<g id="edge8" class="edge">
<title>30&#45;&gt;33</title>
<path fill="none" stroke="black" d="M157.36,-144.05C159.3,-136.49 161.65,-127.37 163.84,-118.85"/>
<polygon fill="black" stroke="black" points="167.21,-119.81 166.31,-109.25 160.43,-118.07 167.21,-119.81"/>
</g>
<!-- 2 -->
<g id="node7" class="node">
<title>2</title>
<ellipse fill="#add8e6" stroke="#add8e6" cx="27" cy="-18" rx="27" ry="18"/>
<text text-anchor="middle" x="27" y="-12.95" font-family="Times,serif" font-size="14.00">2</text>
</g>
<!-- 4&#45;&gt;2 -->
<g id="edge6" class="edge">
<title>4&#45;&gt;2</title>
<path fill="none" stroke="black" d="M27,-71.7C27,-64.41 27,-55.73 27,-47.54"/>
<polygon fill="black" stroke="black" points="30.5,-47.62 27,-37.62 23.5,-47.62 30.5,-47.62"/>
</g>
<!-- 39 -->
<g id="node12" class="node">
<title>39</title>
<ellipse fill="#add8e6" stroke="#add8e6" cx="243" cy="-90" rx="27" ry="18"/>
<text text-anchor="middle" x="243" y="-84.95" font-family="Times,serif" font-size="14.00">39</text>
</g>
<!-- 79&#45;&gt;39 -->
<g id="edge11" class="edge">
<title>79&#45;&gt;39</title>
<path fill="none" stroke="black" d="M256.64,-144.05C254.7,-136.49 252.35,-127.37 250.16,-118.85"/>
<polygon fill="black" stroke="black" points="253.57,-118.07 247.69,-109.25 246.79,-119.81 253.57,-118.07"/>
</g>
<!-- 80 -->
<g id="node13" class="node">
<title>80</title>
<ellipse fill="#add8e6" stroke="#add8e6" cx="315" cy="-90" rx="27" ry="18"/>
<text text-anchor="middle" x="315" y="-84.95" font-family="Times,serif" font-size="14.00">80</text>
</g>
<!-- 79&#45;&gt;80 -->
<g id="edge12" class="edge">
<title>79&#45;&gt;80</title>
<path fill="none" stroke="black" d="M272.98,-145.46C279.77,-136.67 288.4,-125.48 296.08,-115.53"/>
<polygon fill="black" stroke="black" points="298.79,-117.75 302.12,-107.69 293.25,-113.47 298.79,-117.75"/>
</g>
<!-- 96 -->
<g id="node17" class="node">
<title>96</title>
<ellipse fill="#add8e6" stroke="#add8e6" cx="387" cy="-90" rx="27" ry="18"/>
<text text-anchor="middle" x="387" y="-84.95" font-family="Times,serif" font-size="14.00">96</text>
</g>
<!-- 99&#45;&gt;96 -->
<g id="edge16" class="edge">
<title>99&#45;&gt;96</title>
<path fill="none" stroke="black" d="M387,-143.7C387,-136.41 387,-127.73 387,-119.54"/>
<polygon fill="black" stroke="black" points="390.5,-119.62 387,-109.62 383.5,-119.62 390.5,-119.62"/>
</g>
<!-- 119 -->
<g id="node18" class="node">
<title>119</title>
<ellipse fill="#add8e6" stroke="#add8e6" cx="459" cy="-90" rx="27" ry="18"/>
<text text-anchor="middle" x="459" y="-84.95" font-family="Times,serif" font-size="14.00">119</text>
</g>
<!-- 99&#45;&gt;119 -->
<g id="edge17" class="edge">
<title>99&#45;&gt;119</title>
<path fill="none" stroke="black" d="M401.92,-146.5C411.77,-136.92 424.86,-124.19 436.03,-113.34"/>
<polygon fill="black" stroke="black" points="438.29,-116.02 443.02,-106.54 433.41,-111 438.29,-116.02"/>
</g>
<!-- 38 -->
<g id="node14" class="node">
<title>38</title>
<ellipse fill="#add8e6" stroke="#add8e6" cx="171" cy="-18" rx="27" ry="18"/>
<text text-anchor="middle" x="171" y="-12.95" font-family="Times,serif" font-size="14.00">38</text>
</g>
<!-- 39&#45;&gt;38 -->
<g id="edge13" class="edge">
<title>39&#45;&gt;38</title>
<path fill="none" stroke="black" d="M228.08,-74.5C218.23,-64.92 205.14,-52.19 193.97,-41.34"/>
<polygon fill="black" stroke="black" points="196.59,-39 186.98,-34.54 191.71,-44.02 196.59,-39"/>
</g>
<!-- 50 -->
<g id="node15" class="node">
<title>50</title>
<ellipse fill="#add8e6" stroke="#add8e6" cx="243" cy="-18" rx="27" ry="18"/>
<text text-anchor="middle" x="243" y="-12.95" font-family="Times,serif" font-size="14.00">50</text>
</g>
<!-- 39&#45;&gt;50 -->
<g id="edge14" class="edge">
<title>39&#45;&gt;50</title>
<path fill="none" stroke="black" d="M243,-71.7C243,-64.41 243,-55.73 243,-47.54"/>
<polygon fill="black" stroke="black" points="246.5,-47.62 243,-37.62 239.5,-47.62 246.5,-47.62"/>
</g>
<!-- 82 -->
<g id="node16" class="node">
<title>82</title>
<ellipse fill="#add8e6" stroke="#add8e6" cx="315" cy="-18" rx="27" ry="18"/>
<text text-anchor="middle" x="315" y="-12.95" font-family="Times,serif" font-size="14.00">82</text>
</g>
<!-- 80&#45;&gt;82 -->
<g id="edge15" class="edge">
<title>80&#45;&gt;82</title>
<path fill="none" stroke="black" d="M315,-71.7C315,-64.41 315,-55.73 315,-47.54"/>
<polygon fill="black" stroke="black" points="318.5,-47.62 315,-37.62 311.5,-47.62 318.5,-47.62"/>
</g>
</g>
</svg>
