<?xml version="1.0" encoding="UTF-8" standalone="no"?>
<!DOCTYPE svg PUBLIC "-//W3C//DTD SVG 1.1//EN"
 "http://www.w3.org/Graphics/SVG/1.1/DTD/svg11.dtd">
<!-- Generated by graphviz version 10.0.1 (20240210.2158)
 -->
<!-- Title: BST Pages: 1 -->
<svg width="494pt" height="332pt"
 viewBox="0.00 0.00 494.00 332.00" xmlns="http://www.w3.org/2000/svg" xmlns:xlink="http://www.w3.org/1999/xlink">
<g id="graph0" class="graph" transform="scale(1 1) rotate(0) translate(4 328)">
<title>BST</title>
<polygon fill="white" stroke="none" points="-4,4 -4,-328 490,-328 490,4 -4,4"/>
<!-- 36 -->
<g id="node1" class="node">
<title>36</title>
<ellipse fill="#add8e6" stroke="#add8e6" cx="279" cy="-306" rx="27" ry="18"/>
<text text-anchor="middle" x="279" y="-300.95" font-family="Times,serif" font-size="14.00">36</text>
</g>
<!-- 15 -->
<g id="node2" class="node">
<title>15</title>
<ellipse fill="#add8e6" stroke="#add8e6" cx="207" cy="-234" rx="27" ry="18"/>
<text text-anchor="middle" x="207" y="-228.95" font-family="Times,serif" font-size="14.00">15</text>
</g>
<!-- 36&#45;&gt;15 -->
<g id="edge1" class="edge">
<title>36&#45;&gt;15</title>
<path fill="none" stroke="black" d="M264.08,-290.5C254.23,-280.92 241.14,-268.19 229.97,-257.34"/>
<polygon fill="black" stroke="black" points="232.59,-255 222.98,-250.54 227.71,-260.02 232.59,-255"/>
</g>
<!-- 88 -->
<g id="node3" class="node">
<title>88</title>
<ellipse fill="#add8e6" stroke="#add8e6" cx="333" cy="-234" rx="27" ry="18"/>
<text text-anchor="middle" x="333" y="-228.95" font-family="Times,serif" font-size="14.00">88</text>
</g>
<!-- 36&#45;&gt;88 -->
<g id="edge2" class="edge">
<title>36&#45;&gt;88</title>
<path fill="none" stroke="black" d="M290.98,-289.46C297.77,-280.67 306.4,-269.48 314.08,-259.53"/>
<polygon fill="black" stroke="black" points="316.79,-261.75 320.12,-251.69 311.25,-257.47 316.79,-261.75"/>
</g>
<!-- 6 -->
<g id="node4" class="node">
<title>6</title>
<ellipse fill="#add8e6" stroke="#add8e6" cx="99" cy="-162" rx="27" ry="18"/>
<text text-anchor="middle" x="99" y="-156.95" font-family="Times,serif" font-size="14.00">6</text>
</g>
<!-- 15&#45;&gt;6 -->
<g id="edge3" class="edge">
<title>15&#45;&gt;6</title>
<path fill="none" stroke="black" d="M188.19,-220.81C171.41,-209.93 146.61,-193.86 127.41,-181.42"/>
<polygon fill="black" stroke="black" points="129.52,-178.61 119.23,-176.11 125.72,-184.49 129.52,-178.61"/>
</g>
<!-- 30 -->
<g id="node5" class="node">
<title>30</title>
<ellipse fill="#add8e6" stroke="#add8e6" cx="207" cy="-162" rx="27" ry="18"/>
<text text-anchor="middle" x="207" y="-156.95" font-family="Times,serif" font-size="14.00">30</text>
</g>
<!-- 15&#45;&gt;30 -->
<g id="edge4" class="edge">
<title>15&#45;&gt;30</title>
<path fill="none" stroke="black" d="M207,-215.7C207,-208.41 207,-199.73 207,-191.54"/>
<polygon fill="black" stroke="black" points="210.5,-191.62 207,-181.62 203.5,-191.62 210.5,-191.62"/>
</g>
<!-- 79 -->
<g id="node11" class="node">
<title>79</title>
<ellipse fill="#add8e6" stroke="#add8e6" cx="333" cy="-162" rx="27" ry="18"/>
<text text-anchor="middle" x="333" y="-156.95" font-family="Times,serif" font-size="14.00">79</text>
</g>
<!-- 88&#45;&gt;79 -->
<g id="edge10" class="edge">
<title>88&#45;&gt;79</title>
<path fill="none" stroke="black" d="M333,-215.7C333,-208.41 333,-199.73 333,-191.54"/>
<polygon fill="black" stroke="black" points="336.5,-191.62 333,-181.62 329.5,-191.62 336.5,-191.62"/>
</g>
<!-- 99 -->
<g id="node12" class="node">
<title>99</title>
<ellipse fill="#add8e6" stroke="#add8e6" cx="441" cy="-162" rx="27" ry="18"/>
<text text-anchor="middle" x="441" y="-156.95" font-family="Times,serif" font-size="14.00">99</text>
</g>
<!-- 88&#45;&gt;99 -->
<g id="edge11" class="edge">
<title>88&#45;&gt;99</title>
<path fill="none" stroke="black" d="M351.81,-220.81C368.59,-209.93 393.39,-193.86 412.59,-181.42"/>
<polygon fill="black" stroke="black" points="414.28,-184.49 420.77,-176.11 410.48,-178.61 414.28,-184.49"/>
</g>
<!-- 4 -->
<g id="node6" class="node">
<title>4</title>
<ellipse fill="#add8e6" stroke="#add8e6" cx="27" cy="-90" rx="27" ry="18"/>
<text text-anchor="middle" x="27" y="-84.95" font-family="Times,serif" font-size="14.00">4</text>
</g>
<!-- 6&#45;&gt;4 -->
<g id="edge5" class="edge">
<title>6&#45;&gt;4</title>
<path fill="none" stroke="black" d="M84.08,-146.5C74.23,-136.92 61.14,-124.19 49.97,-113.34"/>
<polygon fill="black" stroke="black" points="52.59,-111 42.98,-106.54 47.71,-116.02 52.59,-111"/>
</g>
<!-- 10 -->
<g id="node7" class="node">
<title>10</title>
<ellipse fill="#add8e6" stroke="#add8e6" cx="99" cy="-90" rx="27" ry="18"/>
<text text-anchor="middle" x="99" y="-84.95" font-family="Times,serif" font-size="14.00">10</text>
</g>
<!-- 6&#45;&gt;10 -->
<g id="edge6" class="edge">
<title>6&#45;&gt;10</title>
<path fill="none" stroke="black" d="M99,-143.7C99,-136.41 99,-127.73 99,-119.54"/>
<polygon fill="black" stroke="black" points="102.5,-119.62 99,-109.62 95.5,-119.62 102.5,-119.62"/>
</g>
<!-- 27 -->
<g id="node9" class="node">
<title>27</title>
<ellipse fill="#add8e6" stroke="#add8e6" cx="171" cy="-90" rx="27" ry="18"/>
<text text-anchor="middle" x="171" y="-84.95" font-family="Times,serif" font-size="14.00">27</text>
</g>
<!-- 30&#45;&gt;27 -->
<g id="edge8" class="edge">
<title>30&#45;&gt;27</title>
<path fill="none" stroke="black" d="M198.65,-144.76C194.42,-136.55 189.19,-126.37 184.42,-117.09"/>
<polygon fill="black" stroke="black" points="187.68,-115.79 180,-108.49 181.46,-118.99 187.68,-115.79"/>
</g>
<!-- 33 -->
<g id="node10" class="node">
<title>33</title>
<ellipse fill="#add8e6" stroke="#add8e6" cx="243" cy="-90" rx="27" ry="18"/>
<text text-anchor="middle" x="243" y="-84.95" font-family="Times,serif" font-size="14.00">33</text>
</g>
<!-- 30&#45;&gt;33 -->
<g id="edge9" class="edge">
<title>30&#45;&gt;33</title>
<path fill="none" stroke="black" d="M215.35,-144.76C219.58,-136.55 224.81,-126.37 229.58,-117.09"/>
<polygon fill="black" stroke="black" points="232.54,-118.99 234,-108.49 226.32,-115.79 232.54,-118.99"/>
</g>
<!-- 2 -->
<g id="node8" class="node">
<title>2</title>
<ellipse fill="#add8e6" stroke="#add8e6" cx="27" cy="-18" rx="27" ry="18"/>
<text text-anchor="middle" x="27" y="-12.95" font-family="Times,serif" font-size="14.00">2</text>
</g>
<!-- 4&#45;&gt;2 -->
<g id="edge7" class="edge">
<title>4&#45;&gt;2</title>
<path fill="none" stroke="black" d="M27,-71.7C27,-64.41 27,-55.73 27,-47.54"/>
<polygon fill="black" stroke="black" points="30.5,-47.62 27,-37.62 23.5,-47.62 30.5,-47.62"/>
</g>
<!-- 39 -->
<g id="node13" class="node">
<title>39</title>
<ellipse fill="#add8e6" stroke="#add8e6" cx="315" cy="-90" rx="27" ry="18"/>
<text text-anchor="middle" x="315" y="-84.95" font-family="Times,serif" font-size="14.00">39</text>
</g>
<!-- 79&#45;&gt;39 -->
<g id="edge12" class="edge">
<title>79&#45;&gt;39</title>
<path fill="none" stroke="black" d="M328.64,-144.05C326.7,-136.49 324.35,-127.37 322.16,-118.85"/>
<polygon fill="black" stroke="black" points="325.57,-118.07 319.69,-109.25 318.79,-119.81 325.57,-118.07"/>
</g>
<!-- 80 -->
<g id="node14" class="node">
<title>80</title>
<ellipse fill="#add8e6" stroke="#add8e6" cx="387" cy="-90" rx="27" ry="18"/>
<text text-anchor="middle" x="387" y="-84.95" font-family="Times,serif" font-size="14.00">80</text>
</g>
<!-- 79&#45;&gt;80 -->
<g id="edge13" class="edge">
<title>79&#45;&gt;80</title>
<path fill="none" stroke="black" d="M344.98,-145.46C351.77,-136.67 360.4,-125.48 368.08,-115.53"/>
<polygon fill="black" stroke="black" points="370.79,-117.75 374.12,-107.69 365.25,-113.47 370.79,-117.75"/>
</g>
<!-- 90 -->
<g id="node16" class="node">
<title>90</title>
<ellipse fill="#add8e6" stroke="#add8e6" cx="459" cy="-90" rx="27" ry="18"/>
<text text-anchor="middle" x="459" y="-84.95" font-family="Times,serif" font-size="14.00">90</text>
</g>
<!-- 99&#45;&gt;90 -->
<g id="edge15" class="edge">
<title>99&#45;&gt;90</title>
<path fill="none" stroke="black" d="M445.36,-144.05C447.3,-136.49 449.65,-127.37 451.84,-118.85"/>
<polygon fill="black" stroke="black" points="455.21,-119.81 454.31,-109.25 448.43,-118.07 455.21,-119.81"/>
</g>
<!-- 50 -->
<g id="node15" class="node">
<title>50</title>
<ellipse fill="#add8e6" stroke="#add8e6" cx="315" cy="-18" rx="27" ry="18"/>
<text text-anchor="middle" x="315" y="-12.95" font-family="Times,serif" font-size="14.00">50</text>
</g>
<!-- 39&#45;&gt;50 -->
<g id="edge14" class="edge">
<title>39&#45;&gt;50</title>
<path fill="none" stroke="black" d="M315,-71.7C315,-64.41 315,-55.73 315,-47.54"/>
<polygon fill="black" stroke="black" points="318.5,-47.62 315,-37.62 311.5,-47.62 318.5,-47.62"/>
</g>
</g>
</svg>
