<?xml version="1.0" encoding="UTF-8" standalone="no"?>
<!DOCTYPE svg PUBLIC "-//W3C//DTD SVG 1.1//EN"
 "http://www.w3.org/Graphics/SVG/1.1/DTD/svg11.dtd">
<!-- Generated by graphviz version 10.0.1 (20240210.2158)
 -->
<!-- Title: BST Pages: 1 -->
<svg width="566pt" height="332pt"
 viewBox="0.00 0.00 566.00 332.00" xmlns="http://www.w3.org/2000/svg" xmlns:xlink="http://www.w3.org/1999/xlink">
<g id="graph0" class="graph" transform="scale(1 1) rotate(0) translate(4 328)">
<title>BST</title>
<polygon fill="white" stroke="none" points="-4,4 -4,-328 562,-328 562,4 -4,4"/>
<!-- 36 -->
<g id="node1" class="node">
<title>36</title>
<ellipse fill="#90ee90" stroke="#90ee90" cx="315" cy="-306" rx="27" ry="18"/>
<text text-anchor="middle" x="315" y="-300.95" font-family="Times,serif" font-size="14.00">36</text>
</g>
<!-- 15 -->
<g id="node2" class="node">
<title>15</title>
<ellipse fill="#90ee90" stroke="#90ee90" cx="207" cy="-234" rx="27" ry="18"/>
<text text-anchor="middle" x="207" y="-228.95" font-family="Times,serif" font-size="14.00">15</text>
</g>
<!-- 36&#45;&gt;15 -->
<g id="edge1" class="edge">
<title>36&#45;&gt;15</title>
<path fill="none" stroke="black" d="M296.19,-292.81C279.41,-281.93 254.61,-265.86 235.41,-253.42"/>
<polygon fill="black" stroke="black" points="237.52,-250.61 227.23,-248.11 233.72,-256.49 237.52,-250.61"/>
</g>
<!-- 88 -->
<g id="node3" class="node">
<title>88</title>
<ellipse fill="#90ee90" stroke="#90ee90" cx="351" cy="-234" rx="27" ry="18"/>
<text text-anchor="middle" x="351" y="-228.95" font-family="Times,serif" font-size="14.00">88</text>
</g>
<!-- 36&#45;&gt;88 -->
<g id="edge2" class="edge">
<title>36&#45;&gt;88</title>
<path fill="none" stroke="black" d="M323.35,-288.76C327.58,-280.55 332.81,-270.37 337.58,-261.09"/>
<polygon fill="black" stroke="black" points="340.54,-262.99 342,-252.49 334.32,-259.79 340.54,-262.99"/>
</g>
<!-- 6 -->
<g id="node4" class="node">
<title>6</title>
<ellipse fill="#90ee90" stroke="#90ee90" cx="99" cy="-162" rx="27" ry="18"/>
<text text-anchor="middle" x="99" y="-156.95" font-family="Times,serif" font-size="14.00">6</text>
</g>
<!-- 15&#45;&gt;6 -->
<g id="edge3" class="edge">
<title>15&#45;&gt;6</title>
<path fill="none" stroke="black" d="M188.19,-220.81C171.41,-209.93 146.61,-193.86 127.41,-181.42"/>
<polygon fill="black" stroke="black" points="129.52,-178.61 119.23,-176.11 125.72,-184.49 129.52,-178.61"/>
</g>
<!-- 30 -->
<g id="node5" class="node">
<title>30</title>
<ellipse fill="#90ee90" stroke="#90ee90" cx="207" cy="-162" rx="27" ry="18"/>
<text text-anchor="middle" x="207" y="-156.95" font-family="Times,serif" font-size="14.00">30</text>
</g>
<!-- 15&#45;&gt;30 -->
<g id="edge4" class="edge">
<title>15&#45;&gt;30</title>
<path fill="none" stroke="black" d="M207,-215.7C207,-208.41 207,-199.73 207,-191.54"/>
<polygon fill="black" stroke="black" points="210.5,-191.62 207,-181.62 203.5,-191.62 210.5,-191.62"/>
</g>
<!-- 79 -->
<g id="node12" class="node">
<title>79</title>
<ellipse fill="#90ee90" stroke="#90ee90" cx="351" cy="-162" rx="27" ry="18"/>
<text text-anchor="middle" x="351" y="-156.95" font-family="Times,serif" font-size="14.00">79</text>
</g>
<!-- 88&#45;&gt;79 -->
<g id="edge11" class="edge">
<title>88&#45;&gt;79</title>
<path fill="none" stroke="black" d="M351,-215.7C351,-208.41 351,-199.73 351,-191.54"/>
<polygon fill="black" stroke="black" points="354.5,-191.62 351,-181.62 347.5,-191.62 354.5,-191.62"/>
</g>
<!-- 99 -->
<g id="node13" class="node">
<title>99</title>
<ellipse fill="#90ee90" stroke="#90ee90" cx="459" cy="-162" rx="27" ry="18"/>
<text text-anchor="middle" x="459" y="-156.95" font-family="Times,serif" font-size="14.00">99</text>
</g>
<!-- 88&#45;&gt;99 -->
<g id="edge12" class="edge">
<title>88&#45;&gt;99</title>
<path fill="none" stroke="black" d="M369.81,-220.81C386.59,-209.93 411.39,-193.86 430.59,-181.42"/>
<polygon fill="black" stroke="black" points="432.28,-184.49 438.77,-176.11 428.48,-178.61 432.28,-184.49"/>
</g>
<!-- 4 -->
<g id="node6" class="node">
<title>4</title>
<ellipse fill="#90ee90" stroke="#90ee90" cx="27" cy="-90" rx="27" ry="18"/>
<text text-anchor="middle" x="27" y="-84.95" font-family="Times,serif" font-size="14.00">4</text>
</g>
<!-- 6&#45;&gt;4 -->
<g id="edge5" class="edge">
<title>6&#45;&gt;4</title>
<path fill="none" stroke="black" d="M84.08,-146.5C74.23,-136.92 61.14,-124.19 49.97,-113.34"/>
<polygon fill="black" stroke="black" points="52.59,-111 42.98,-106.54 47.71,-116.02 52.59,-111"/>
</g>
<!-- 10 -->
<g id="node7" class="node">
<title>10</title>
<ellipse fill="#90ee90" stroke="#90ee90" cx="99" cy="-90" rx="27" ry="18"/>
<text text-anchor="middle" x="99" y="-84.95" font-family="Times,serif" font-size="14.00">10</text>
</g>
<!-- 6&#45;&gt;10 -->
<g id="edge6" class="edge">
<title>6&#45;&gt;10</title>
<path fill="none" stroke="black" d="M99,-143.7C99,-136.41 99,-127.73 99,-119.54"/>
<polygon fill="black" stroke="black" points="102.5,-119.62 99,-109.62 95.5,-119.62 102.5,-119.62"/>
</g>
<!-- 27 -->
<g id="node9" class="node">
<title>27</title>
<ellipse fill="#90ee90" stroke="#90ee90" cx="171" cy="-90" rx="27" ry="18"/>
<text text-anchor="middle" x="171" y="-84.95" font-family="Times,serif" font-size="14.00">27</text>
</g>
<!-- 30&#45;&gt;27 -->
<g id="edge8" class="edge">
<title>30&#45;&gt;27</title>
<path fill="none" stroke="black" d="M198.65,-144.76C194.42,-136.55 189.19,-126.37 184.42,-117.09"/>
<polygon fill="black" stroke="black" points="187.68,-115.79 180,-108.49 181.46,-118.99 187.68,-115.79"/>
</g>
<!-- 33 -->
<g id="node10" class="node">
<title>33</title>
<ellipse fill="#90ee90" stroke="#90ee90" cx="243" cy="-90" rx="27" ry="18"/>
<text text-anchor="middle" x="243" y="-84.95" font-family="Times,serif" font-size="14.00">33</text>
</g>
<!-- 30&#45;&gt;33 -->
<g id="edge9" class="edge">
<title>30&#45;&gt;33</title>
<path fill="none" stroke="black" d="M215.35,-144.76C219.58,-136.55 224.81,-126.37 229.58,-117.09"/>
<polygon fill="black" stroke="black" points="232.54,-118.99 234,-108.49 226.32,-115.79 232.54,-118.99"/>
</g>
<!-- 2 -->
<g id="node8" class="node">
<title>2</title>
<ellipse fill="#90ee90" stroke="#90ee90" cx="27" cy="-18" rx="27" ry="18"/>
<text text-anchor="middle" x="27" y="-12.95" font-family="Times,serif" font-size="14.00">2</text>
</g>
<!-- 4&#45;&gt;2 -->
<g id="edge7" class="edge">
<title>4&#45;&gt;2</title>
<path fill="none" stroke="black" d="M27,-71.7C27,-64.41 27,-55.73 27,-47.54"/>
<polygon fill="black" stroke="black" points="30.5,-47.62 27,-37.62 23.5,-47.62 30.5,-47.62"/>
</g>
<!-- 29 -->
<g id="node11" class="node">
<title>29</title>
<ellipse fill="#90ee90" stroke="#90ee90" cx="171" cy="-18" rx="27" ry="18"/>
<text text-anchor="middle" x="171" y="-12.95" font-family="Times,serif" font-size="14.00">29</text>
</g>
<!-- 27&#45;&gt;29 -->
<g id="edge10" class="edge">
<title>27&#45;&gt;29</title>
<path fill="none" stroke="black" d="M171,-71.7C171,-64.41 171,-55.73 171,-47.54"/>
<polygon fill="black" stroke="black" points="174.5,-47.62 171,-37.62 167.5,-47.62 174.5,-47.62"/>
</g>
<!-- 39 -->
<g id="node14" class="node">
<title>39</title>
<ellipse fill="#90ee90" stroke="#90ee90" cx="315" cy="-90" rx="27" ry="18"/>
<text text-anchor="middle" x="315" y="-84.95" font-family="Times,serif" font-size="14.00">39</text>
</g>
<!-- 79&#45;&gt;39 -->
<g id="edge13" class="edge">
<title>79&#45;&gt;39</title>
<path fill="none" stroke="black" d="M342.65,-144.76C338.42,-136.55 333.19,-126.37 328.42,-117.09"/>
<polygon fill="black" stroke="black" points="331.68,-115.79 324,-108.49 325.46,-118.99 331.68,-115.79"/>
</g>
<!-- 80 -->
<g id="node15" class="node">
<title>80</title>
<ellipse fill="#90ee90" stroke="#90ee90" cx="387" cy="-90" rx="27" ry="18"/>
<text text-anchor="middle" x="387" y="-84.95" font-family="Times,serif" font-size="14.00">80</text>
</g>
<!-- 79&#45;&gt;80 -->
<g id="edge14" class="edge">
<title>79&#45;&gt;80</title>
<path fill="none" stroke="black" d="M359.35,-144.76C363.58,-136.55 368.81,-126.37 373.58,-117.09"/>
<polygon fill="black" stroke="black" points="376.54,-118.99 378,-108.49 370.32,-115.79 376.54,-118.99"/>
</g>
<!-- 90 -->
<g id="node19" class="node">
<title>90</title>
<ellipse fill="#90ee90" stroke="#90ee90" cx="459" cy="-90" rx="27" ry="18"/>
<text text-anchor="middle" x="459" y="-84.95" font-family="Times,serif" font-size="14.00">90</text>
</g>
<!-- 99&#45;&gt;90 -->
<g id="edge18" class="edge">
<title>99&#45;&gt;90</title>
<path fill="none" stroke="black" d="M459,-143.7C459,-136.41 459,-127.73 459,-119.54"/>
<polygon fill="black" stroke="black" points="462.5,-119.62 459,-109.62 455.5,-119.62 462.5,-119.62"/>
</g>
<!-- 119 -->
<g id="node20" class="node">
<title>119</title>
<ellipse fill="#90ee90" stroke="#90ee90" cx="531" cy="-90" rx="27" ry="18"/>
<text text-anchor="middle" x="531" y="-84.95" font-family="Times,serif" font-size="14.00">119</text>
</g>
<!-- 99&#45;&gt;119 -->
<g id="edge19" class="edge">
<title>99&#45;&gt;119</title>
<path fill="none" stroke="black" d="M473.92,-146.5C483.77,-136.92 496.86,-124.19 508.03,-113.34"/>
<polygon fill="black" stroke="black" points="510.29,-116.02 515.02,-106.54 505.41,-111 510.29,-116.02"/>
</g>
<!-- 38 -->
<g id="node16" class="node">
<title>38</title>
<ellipse fill="#90ee90" stroke="#90ee90" cx="243" cy="-18" rx="27" ry="18"/>
<text text-anchor="middle" x="243" y="-12.95" font-family="Times,serif" font-size="14.00">38</text>
</g>
<!-- 39&#45;&gt;38 -->
<g id="edge15" class="edge">
<title>39&#45;&gt;38</title>
<path fill="none" stroke="black" d="M300.08,-74.5C290.23,-64.92 277.14,-52.19 265.97,-41.34"/>
<polygon fill="black" stroke="black" points="268.59,-39 258.98,-34.54 263.71,-44.02 268.59,-39"/>
</g>
<!-- 50 -->
<g id="node17" class="node">
<title>50</title>
<ellipse fill="#90ee90" stroke="#90ee90" cx="315" cy="-18" rx="27" ry="18"/>
<text text-anchor="middle" x="315" y="-12.95" font-family="Times,serif" font-size="14.00">50</text>
</g>
<!-- 39&#45;&gt;50 -->
<g id="edge16" class="edge">
<title>39&#45;&gt;50</title>
<path fill="none" stroke="black" d="M315,-71.7C315,-64.41 315,-55.73 315,-47.54"/>
<polygon fill="black" stroke="black" points="318.5,-47.62 315,-37.62 311.5,-47.62 318.5,-47.62"/>
</g>
<!-- 82 -->
<g id="node18" class="node">
<title>82</title>
<ellipse fill="#90ee90" stroke="#90ee90" cx="387" cy="-18" rx="27" ry="18"/>
<text text-anchor="middle" x="387" y="-12.95" font-family="Times,serif" font-size="14.00">82</text>
</g>
<!-- 80&#45;&gt;82 -->
<g id="edge17" class="edge">
<title>80&#45;&gt;82</title>
<path fill="none" stroke="black" d="M387,-71.7C387,-64.41 387,-55.73 387,-47.54"/>
<polygon fill="black" stroke="black" points="390.5,-47.62 387,-37.62 383.5,-47.62 390.5,-47.62"/>
</g>
<!-- 96 -->
<g id="node21" class="node">
<title>96</title>
<ellipse fill="#90ee90" stroke="#90ee90" cx="459" cy="-18" rx="27" ry="18"/>
<text text-anchor="middle" x="459" y="-12.95" font-family="Times,serif" font-size="14.00">96</text>
</g>
<!-- 90&#45;&gt;96 -->
<g id="edge20" class="edge">
<title>90&#45;&gt;96</title>
<path fill="none" stroke="black" d="M459,-71.7C459,-64.41 459,-55.73 459,-47.54"/>
<polygon fill="black" stroke="black" points="462.5,-47.62 459,-37.62 455.5,-47.62 462.5,-47.62"/>
</g>
</g>
</svg>
